<svg width="139" height="32" viewBox="0 0 139 32" fill="none" xmlns="http://www.w3.org/2000/svg">
<path d="M9.14434 1.31232C9.43295 0.52412 10.183 0 11.0224 0H22.2443C23.5968 0 24.5593 1.31456 24.1509 2.60395L20.4675 14.232C20.2042 15.0632 19.4328 15.6281 18.5609 15.6281H6.76454C5.37472 15.6281 4.40861 14.2455 4.88649 12.9404L9.14434 1.31232Z" fill="#EB515B"/>
<path d="M12.2664 17.6846C12.555 16.8964 13.3051 16.3723 14.1445 16.3723H25.3664C26.7189 16.3723 27.6814 17.6869 27.273 18.9763L23.5896 30.6044C23.3263 31.4356 22.5549 32.0004 21.683 32.0004H9.88661C8.49679 32.0004 7.53068 30.6178 8.00856 29.3127L12.2664 17.6846Z" fill="#EB515B"/>
<path d="M22.9989 8.02683C23.2827 7.22986 24.0371 6.69759 24.8831 6.69759H29.2918C30.6376 6.69759 31.5993 8.00004 31.2032 9.28624L29.6848 14.2166C29.4265 15.0555 28.6512 15.6279 27.7734 15.6279H23.1279C21.7457 15.6279 20.7802 14.2593 21.2438 12.9572L22.9989 8.02683Z" fill="#EB515B"/>
<path d="M2.70597 17.7015C2.98969 16.9045 3.74417 16.3722 4.59014 16.3722H8.99882C10.3446 16.3722 11.3063 17.6747 10.9102 18.9609L9.39186 23.8912C9.13349 24.7302 8.35827 25.3026 7.48045 25.3026H2.83495C1.45275 25.3026 0.487221 23.934 0.950784 22.6318L2.70597 17.7015Z" fill="#EB515B"/>
<path d="M53.4148 13.1193C53.2727 12.6591 53.0767 12.2472 52.8267 11.8835C52.5824 11.5142 52.2869 11.1989 51.9403 10.9375C51.5994 10.6761 51.2074 10.4801 50.7642 10.3494C50.321 10.2131 49.8381 10.1449 49.3153 10.1449C48.3778 10.1449 47.5426 10.3807 46.8097 10.8523C46.0767 11.3239 45.5 12.017 45.0795 12.9318C44.6648 13.8409 44.4574 14.9489 44.4574 16.2557C44.4574 17.5739 44.6648 18.6903 45.0795 19.6051C45.4943 20.5199 46.071 21.2159 46.8097 21.6932C47.5483 22.1648 48.4063 22.4006 49.3835 22.4006C50.2699 22.4006 51.0369 22.2301 51.6847 21.8892C52.3381 21.5483 52.8409 21.0653 53.1932 20.4403C53.5455 19.8097 53.7216 19.071 53.7216 18.2244L54.4375 18.3352H49.6989V15.8636H56.7812V17.9602C56.7812 19.4545 56.4631 20.7472 55.8267 21.8381C55.1903 22.929 54.3153 23.7699 53.2017 24.3608C52.0881 24.946 50.8097 25.2386 49.3665 25.2386C47.7585 25.2386 46.3466 24.8778 45.1307 24.1562C43.9205 23.429 42.9744 22.3977 42.2926 21.0625C41.6165 19.7216 41.2784 18.1307 41.2784 16.2898C41.2784 14.8807 41.4773 13.6222 41.875 12.5142C42.2784 11.4062 42.8409 10.4659 43.5625 9.69318C44.2841 8.91477 45.1307 8.32386 46.1023 7.92045C47.0739 7.51136 48.1307 7.30682 49.2727 7.30682C50.2386 7.30682 51.1392 7.44886 51.9744 7.73295C52.8097 8.01136 53.5511 8.40909 54.1989 8.92614C54.8523 9.44318 55.3892 10.0568 55.8097 10.767C56.2301 11.4773 56.5057 12.2614 56.6364 13.1193H53.4148ZM60.5227 25V11.9091H63.608V25H60.5227ZM62.0739 10.0511C61.5852 10.0511 61.1648 9.8892 60.8125 9.56534C60.4602 9.23579 60.2841 8.84091 60.2841 8.38068C60.2841 7.91477 60.4602 7.51989 60.8125 7.19602C61.1648 6.86648 61.5852 6.7017 62.0739 6.7017C62.5682 6.7017 62.9886 6.86648 63.3352 7.19602C63.6875 7.51989 63.8636 7.91477 63.8636 8.38068C63.8636 8.84091 63.6875 9.23579 63.3352 9.56534C62.9886 9.8892 62.5682 10.0511 62.0739 10.0511ZM73.4112 11.9091V14.2955H65.6726V11.9091H73.4112ZM67.6072 25V10.6733C67.6072 9.79261 67.7891 9.05966 68.1527 8.47443C68.522 7.8892 69.0163 7.4517 69.6357 7.16193C70.255 6.87216 70.9425 6.72727 71.6982 6.72727C72.2322 6.72727 72.7067 6.76989 73.1214 6.85511C73.5362 6.94034 73.843 7.01705 74.0419 7.08523L73.4283 9.47159C73.2976 9.43182 73.1328 9.39204 72.9339 9.35227C72.7351 9.30682 72.5135 9.28409 72.2692 9.28409C71.6953 9.28409 71.2891 9.4233 71.0504 9.7017C70.8175 9.97443 70.701 10.3665 70.701 10.8778V25H67.6072ZM82.3643 11.9091V14.2955H74.8388V11.9091H82.3643ZM76.6967 8.77273H79.782V21.0625C79.782 21.4773 79.8445 21.7955 79.9695 22.017C80.1001 22.233 80.2706 22.3807 80.4808 22.4602C80.6911 22.5398 80.924 22.5795 81.1797 22.5795C81.3729 22.5795 81.549 22.5653 81.7081 22.5369C81.8729 22.5085 81.9979 22.483 82.0831 22.4602L82.603 24.8722C82.4382 24.929 82.2024 24.9915 81.8956 25.0597C81.5945 25.1278 81.2251 25.1676 80.7876 25.179C80.0149 25.2017 79.3189 25.0852 78.6996 24.8295C78.0803 24.5682 77.5888 24.1648 77.2251 23.6193C76.8672 23.0739 76.6911 22.392 76.6967 21.5739V8.77273ZM85.3622 25V7.54545H91.9077C93.2486 7.54545 94.3736 7.79545 95.2827 8.29545C96.1974 8.79545 96.8878 9.48295 97.3537 10.358C97.8253 11.2273 98.0611 12.2159 98.0611 13.3239C98.0611 14.4432 97.8253 15.4375 97.3537 16.3068C96.8821 17.1761 96.1861 17.8608 95.2656 18.3608C94.3452 18.8551 93.2116 19.1023 91.8651 19.1023H87.527V16.5028H91.4389C92.223 16.5028 92.8651 16.3665 93.3651 16.0938C93.8651 15.821 94.2344 15.446 94.473 14.9688C94.7173 14.4915 94.8395 13.9432 94.8395 13.3239C94.8395 12.7045 94.7173 12.1591 94.473 11.6875C94.2344 11.2159 93.8622 10.8494 93.3565 10.5881C92.8565 10.321 92.2116 10.1875 91.4219 10.1875H88.5241V25H85.3622ZM100.671 25V11.9091H103.756V25H100.671ZM102.222 10.0511C101.734 10.0511 101.313 9.8892 100.961 9.56534C100.609 9.23579 100.433 8.84091 100.433 8.38068C100.433 7.91477 100.609 7.51989 100.961 7.19602C101.313 6.86648 101.734 6.7017 102.222 6.7017C102.717 6.7017 103.137 6.86648 103.484 7.19602C103.836 7.51989 104.012 7.91477 104.012 8.38068C104.012 8.84091 103.836 9.23579 103.484 9.56534C103.137 9.8892 102.717 10.0511 102.222 10.0511ZM109.452 11.9091L112.094 16.7415L114.778 11.9091H118.043L114.097 18.4545L118.111 25H114.864L112.094 20.2869L109.349 25H106.077L110.065 18.4545L106.179 11.9091H109.452ZM125.732 25.2557C124.42 25.2557 123.286 24.983 122.332 24.4375C121.383 23.8864 120.653 23.108 120.141 22.1023C119.63 21.0909 119.374 19.9006 119.374 18.5312C119.374 17.1847 119.63 16.0028 120.141 14.9858C120.658 13.9631 121.38 13.1676 122.306 12.5994C123.232 12.0256 124.32 11.7386 125.57 11.7386C126.377 11.7386 127.138 11.8693 127.854 12.1307C128.576 12.3864 129.212 12.7841 129.763 13.3239C130.32 13.8636 130.758 14.5511 131.076 15.3864C131.394 16.2159 131.553 17.2045 131.553 18.3523V19.2983H120.823V17.2188H128.596C128.59 16.6278 128.462 16.1023 128.212 15.642C127.962 15.1761 127.613 14.8097 127.164 14.5426C126.721 14.2756 126.204 14.142 125.613 14.142C124.982 14.142 124.428 14.2955 123.951 14.6023C123.474 14.9034 123.102 15.3011 122.835 15.7955C122.573 16.2841 122.44 16.821 122.434 17.4062V19.2216C122.434 19.983 122.573 20.6364 122.852 21.1818C123.13 21.7216 123.519 22.1364 124.019 22.4261C124.519 22.7102 125.104 22.8523 125.775 22.8523C126.224 22.8523 126.63 22.7898 126.994 22.6648C127.357 22.5341 127.673 22.3438 127.94 22.0938C128.207 21.8438 128.408 21.5341 128.545 21.1648L131.425 21.4886C131.244 22.25 130.897 22.9148 130.386 23.483C129.88 24.0455 129.232 24.483 128.442 24.7955C127.653 25.1023 126.749 25.2557 125.732 25.2557ZM137.249 7.54545V25H134.163V7.54545H137.249Z" fill="black"/>
</svg>
